<?xml version="1.0" standalone="no"?>
<!DOCTYPE svg PUBLIC "-//W3C//DTD SVG 20010904//EN"
 "http://www.w3.org/TR/2001/REC-SVG-20010904/DTD/svg10.dtd">
<svg version="1.0" xmlns="http://www.w3.org/2000/svg"
 width="700.000000pt" height="700.000000pt" viewBox="0 0 700.000000 700.000000"
 preserveAspectRatio="xMidYMid meet">
<metadata>
Created by potrace 1.14, written by Peter Selinger 2001-2017
</metadata>
<g transform="translate(0.000000,700.000000) scale(0.100000,-0.100000)"
fill="#000000" stroke="none">
<path d="M3205 6769 c-582 -51 -1186 -281 -1655 -631 -688 -514 -1144 -1256
-1284 -2088 -206 -1226 288 -2450 1289 -3191 863 -639 1998 -812 3018 -459
1047 362 1847 1238 2112 2314 219 894 56 1837 -450 2596 -460 690 -1143 1173
-1941 1373 -339 85 -735 116 -1089 86z m2378 -1866 c114 -117 207 -216 207
-221 0 -6 -2708 -2801 -2989 -3085 l-67 -67 -759 781 c-418 431 -761 787 -762
793 -2 6 169 185 380 398 l382 387 375 -387 c206 -213 380 -387 385 -387 6 0
525 529 1153 1176 l1142 1176 173 -176 c95 -97 266 -272 380 -388z"/>
</g>
</svg>
